# xmcd
#
# Track frame offsets:
#	150
#	14630
#	26325
#	45495
#	62288
#	81645
#	93420
#	117133
#	138108
#	152775
#
# Disc length: 2185
#
# Revision: 2
# Processed by: cddbd v1.5.1PL0 Copyright (c) Steve Scherf et al.
# Submitted via: audiograbber 1.81.02
# Normalized: r1:DSETVAR1
#
DISCID=7508870a
DTITLE=Various Artist - Masters Of The Blues
DYEAR=1900
DGENRE=Blues
TTITLE0=Muddy Waters - Got My Mojo Workin' (Live)
TTITLE1=Mike Bloomfield - Rx For The Blues
TTITLE2=Otis Rush - It May Be The Last Time
TTITLE3=Little Walter - Walter's Blues
TTITLE4=Z Z Hill - Just As I Am
TTITLE5=Lightnin' Hopkins - What'd I Say
TTITLE6=Howlin' Wolf - Dust My Broom (Live)
TTITLE7=Little Walter and Otis Rush - Goin' Down Slow
TTITLE8=Muddy Waters - Hoochie Coochie Man
TTITLE9=Jimmy Reed - Little Rain
EXTD=
EXTT0=
EXTT1=
EXTT2=
EXTT3=
EXTT4=
EXTT5=
EXTT6=
EXTT7=
EXTT8=
EXTT9=
PLAYORDER=
